<svg width="1400" height="800" viewBox="0 0 1400 800" fill="none" xmlns="http://www.w3.org/2000/svg" role="img" aria-label="Evolva Agent Architecture">
  <defs>
    <linearGradient id="bg" x1="0" y1="0" x2="1400" y2="800">
      <stop stop-color="#050505"/>
      <stop offset="1" stop-color="#080806"/>
    </linearGradient>
    <filter id="shadow">
      <feDropShadow dx="0" dy="10" stdDeviation="13" flood-color="#000000" flood-opacity="0.52"/>
    </filter>
    <marker id="arrow" markerWidth="10" markerHeight="10" refX="8" refY="5" orient="auto" markerUnits="userSpaceOnUse">
      <path d="M0 0L9 5L0 10Z" fill="#C39A4F"/>
    </marker>
    <style>
      .title{font-family:Inter,Arial,sans-serif;font-size:40px;font-weight:780;fill:#F0D58E}
      .subtitle{font-family:Inter,Arial,sans-serif;font-size:18px;fill:#C2A265}
      .section{font-family:Inter,Arial,sans-serif;font-size:13px;letter-spacing:.15em;text-transform:uppercase;fill:#A88948}
      .box{fill:#0D0E0E;stroke:#A77B35;stroke-width:1.35;filter:url(#shadow)}
      .panel{fill:#0B0C0C;stroke:#7B5A27;stroke-width:1.25;filter:url(#shadow)}
      .label{font-family:Inter,Arial,sans-serif;font-size:23px;font-weight:760;fill:#F0D58E}
      .small{font-family:Inter,Arial,sans-serif;font-size:13.5px;fill:#B89455}
      .mini{font-family:Inter,Arial,sans-serif;font-size:12.5px;fill:#C2A265}
      .line{stroke:#C39A4F;stroke-width:2;stroke-linecap:square;stroke-linejoin:miter;marker-end:url(#arrow)}
      .plain{stroke:#C39A4F;stroke-width:2;stroke-linecap:square;stroke-linejoin:miter}
    </style>
  </defs>

  <rect width="1400" height="800" rx="28" fill="url(#bg)"/>
  <rect x="4" y="4" width="1392" height="792" rx="26" stroke="#272724" stroke-width="1.2"/>

  <text x="60" y="74" class="title">Evolva Agent Architecture</text>
  <text x="60" y="108" class="subtitle">A local agent harness built around state, safe execution, observability, evaluation and evolution.</text>

  <text x="80" y="158" class="section">INTERFACE</text>
  <text x="392" y="158" class="section">REASONING LOOP</text>
  <text x="818" y="158" class="section">STATE AND LEARNING</text>
  <text x="164" y="352" class="section">GUARDED EXECUTION</text>
  <text x="388" y="608" class="section">FEEDBACK LOOP</text>

  <!-- Interface and core -->
  <rect x="72" y="178" width="222" height="100" rx="17" class="box"/>
  <text x="132" y="224" class="label">CLI / TUI</text>
  <text x="103" y="252" class="small">chat · commands · image</text>

  <rect x="396" y="170" width="285" height="132" rx="21" class="box"/>
  <text x="474" y="224" class="label">Evolva Core</text>
  <text x="447" y="253" class="small">plan · act · observe · reflect</text>
  <rect x="472" y="267" width="134" height="25" rx="12" fill="#17130B" stroke="#6D5120" stroke-width="1"/>
  <text x="502" y="284" class="small">JSON steps</text>

  <!-- State panel -->
  <rect x="800" y="168" width="456" height="156" rx="22" class="panel"/>
  <text x="824" y="200" class="section" style="font-size:12px;letter-spacing:.10em">PERSISTENT RUNTIME ASSETS</text>
  <rect x="824" y="214" width="130" height="54" rx="12" class="box" filter="none"/>
  <text x="853" y="249" class="label" style="font-size:21px">Memory</text>
  <rect x="970" y="214" width="132" height="54" rx="12" class="box" filter="none"/>
  <text x="1013" y="249" class="label" style="font-size:21px">Skills</text>
  <rect x="1118" y="214" width="116" height="54" rx="12" class="box" filter="none"/>
  <text x="1150" y="249" class="label" style="font-size:21px">Todo</text>
  <rect x="900" y="282" width="250" height="56" rx="12" class="box" filter="none"/>
  <text x="982" y="318" class="label" style="font-size:21px">Context</text>

  <!-- Execution row -->
  <rect x="115" y="386" width="205" height="98" rx="17" class="box"/>
  <text x="187" y="434" class="label" style="font-size:21px">Policy</text>
  <text x="147" y="461" class="small">risk · denylist · secrets</text>

  <rect x="405" y="386" width="205" height="98" rx="17" class="box"/>
  <text x="464" y="434" class="label" style="font-size:21px">Sandbox</text>
  <text x="428" y="461" class="small">workspace · shell · python</text>

  <rect x="685" y="386" width="180" height="98" rx="17" class="box"/>
  <text x="742" y="434" class="label" style="font-size:21px">Tools</text>
  <text x="707" y="461" class="small">files · web · todo · run</text>

  <rect x="952" y="368" width="154" height="72" rx="15" class="box"/>
  <text x="996" y="404" class="label" style="font-size:21px">MCP</text>
  <text x="985" y="425" class="small">external tools</text>

  <rect x="952" y="464" width="154" height="76" rx="15" class="box"/>
  <text x="1006" y="498" class="label" style="font-size:20px">Sub</text>
  <text x="989" y="523" class="label" style="font-size:20px">Agents</text>

  <rect x="1160" y="414" width="155" height="76" rx="15" class="box"/>
  <text x="1189" y="456" class="label" style="font-size:20px">Workflow</text>
  <text x="1200" y="477" class="small">node runner</text>

  <!-- Feedback row -->
  <rect x="322" y="622" width="200" height="94" rx="16" class="box"/>
  <text x="389" y="669" class="label" style="font-size:21px">Trace</text>
  <text x="352" y="695" class="small">prompt · policy · tools</text>

  <rect x="598" y="622" width="185" height="94" rx="16" class="box"/>
  <text x="662" y="669" class="label" style="font-size:21px">Eval</text>
  <text x="633" y="695" class="small">regression checks</text>

  <rect x="866" y="622" width="185" height="94" rx="16" class="box"/>
  <text x="915" y="669" class="label" style="font-size:21px">Evolution</text>
  <text x="904" y="695" class="small">lessons · skills</text>

  <!-- Main flow arrows -->
  <path class="line" d="M294 228H388"/>
  <text x="334" y="217" class="mini">intent</text>
  <path class="line" d="M681 228H792"/>
  <text x="716" y="217" class="mini">state</text>

  <path class="line" d="M320 435H397"/>
  <text x="338" y="424" class="mini">approve</text>
  <path class="line" d="M610 435H677"/>
  <text x="625" y="424" class="mini">execute</text>

  <path class="line" d="M865 404H944"/>
  <path class="plain" d="M865 435H916V454H1152"/>
  <path class="line" d="M916 454H1152"/>
  <path class="plain" d="M865 452H902V502H944"/>
  <path class="line" d="M902 502H944"/>

  <!-- Core to policy -->
  <path class="plain" d="M538 302V355H218"/>
  <path class="line" d="M218 355V378"/>

  <!-- Context / MCP relationship -->
  <path class="line" d="M1016 368V346"/>
  <path class="line" d="M1040 338V360"/>

  <!-- Feedback and event recording -->
  <path class="plain" d="M1016 540V568H218V492"/>
  <path class="line" d="M218 492V486"/>
  <text x="464" y="555" class="mini">record events</text>

  <path class="line" d="M522 669H590"/>
  <text x="542" y="657" class="mini">score</text>
  <path class="line" d="M783 669H858"/>
  <text x="806" y="657" class="mini">learn</text>

  <path class="plain" d="M1015 622V600H1042V548"/>
  <path class="line" d="M1042 548V542"/>
</svg>
