<svg width="1600" height="760" viewBox="0 0 1600 760" fill="none" xmlns="http://www.w3.org/2000/svg" role="img" aria-label="Evolva TUI Workbench preview">
  <defs>
    <style>
      .mono{font-family: ui-monospace, SFMono-Regular, Menlo, Monaco, Consolas, 'Liberation Mono', monospace;}
      .sans{font-family: Inter, ui-sans-serif, -apple-system, BlinkMacSystemFont, 'Segoe UI', sans-serif;}
      .title{fill:#E8C766}.gold{fill:#D9B762}.gold2{fill:#B88A36}.text{fill:#ECE5D8}.muted{fill:#AAA194}.dim{fill:#766F64}.blue{fill:#75B7FF}.green{fill:#73D48E}.line{stroke:#3A2A10}
    </style>
  </defs>

  <rect width="1600" height="760" rx="44" fill="#050505"/>
  <path d="M1200 0h356c24 0 44 20 44 44v672c0 24-20 44-44 44h-470c80-126 128-248 146-366 18-120 6-250-32-394Z" fill="#1B1408" opacity="0.78"/>
  <path d="M0 570c140-80 292-110 454-90 162 20 292 88 390 204 20 24 38 49 54 76H44c-24 0-44-20-44-44V570Z" fill="#120D05" opacity="0.9"/>
  <circle cx="1280" cy="110" r="220" fill="#D9B762" opacity="0.08"/>
  <circle cx="256" cy="718" r="280" fill="#9F7A30" opacity="0.07"/>

  <rect x="76" y="56" width="1448" height="648" rx="30" fill="#080807" stroke="#342611" stroke-width="2"/>
  <rect x="76" y="56" width="1448" height="58" rx="30" fill="#15110A"/>
  <path d="M76 86c0-17 13-30 30-30h1388c17 0 30 13 30 30v28H76V86Z" fill="#15110A"/>
  <circle cx="114" cy="86" r="7" fill="#7A2D27"/>
  <circle cx="142" cy="86" r="7" fill="#A57B32"/>
  <circle cx="170" cy="86" r="7" fill="#4C6E3A"/>
  <text x="202" y="92" class="mono title" font-size="17" font-weight="700">evolva · local-first self-evolving agent workbench</text>
  <text x="1452" y="92" class="mono dim" font-size="15" text-anchor="end">TUI-first</text>

  <g transform="translate(124 146)">
    <text x="0" y="0" class="mono title" font-size="25" font-weight="800">╭───────●</text>
    <text x="0" y="32" class="mono title" font-size="25" font-weight="800">│  ╭───●</text>
    <text x="0" y="64" class="mono title" font-size="25" font-weight="800">│  ╰───●</text>
    <text x="0" y="96" class="mono title" font-size="25" font-weight="800">●──╮</text>
    <text x="0" y="128" class="mono title" font-size="25" font-weight="800">│  ╰───●</text>
    <text x="0" y="160" class="mono title" font-size="25" font-weight="800">╰───────●</text>
  </g>
  <text x="386" y="168" class="mono title" font-size="38" font-weight="900" letter-spacing="10">E V O L V A</text>
  <text x="386" y="208" class="mono dim" font-size="17">local_rule-mode · repo=/Users/bytedance/Documents/agent</text>
  <text x="386" y="242" class="mono muted" font-size="17">Trace · Eval · Dream · Loop · MCP · Memory · Guardrails</text>
  <line x1="110" y1="314" x2="1490" y2="314" class="line" stroke-width="1"/>

  <rect x="110" y="346" width="898" height="244" rx="22" fill="#0D0D0B" stroke="#30240F" stroke-width="1.5"/>
  <rect x="1034" y="346" width="456" height="244" rx="22" fill="#0D0D0B" stroke="#30240F" stroke-width="1.5"/>

  <text x="140" y="390" class="mono blue" font-size="17">[18:00:01] You:</text>
  <text x="140" y="422" class="mono text" font-size="19">帮我分析当前仓库，生成可验证的优化计划</text>
  <text x="140" y="474" class="mono title" font-size="17">[18:00:03] Evolva:</text>
  <text x="140" y="506" class="mono text" font-size="19">我会构建 repo index，读取最近 trace，再把候选改进入 Dream Backlog。</text>
  <text x="140" y="558" class="mono dim" font-size="16">/model  /mcp  /trace context latest  /loop run dream-loop  /dream backlog</text>

  <text x="1064" y="390" class="sans title" font-size="21" font-weight="800">Trace / Tool Stream</text>
  <text x="1064" y="434" class="mono green" font-size="16">TOOL repo_index.build</text>
  <text x="1064" y="462" class="mono muted" font-size="15">symbols=312 · chunks=486 · ok=True</text>
  <text x="1064" y="504" class="mono green" font-size="16">TOOL dream.generate</text>
  <text x="1064" y="532" class="mono muted" font-size="15">candidates=3 · drift_guard=pass</text>
  <text x="1064" y="570" class="mono title" font-size="16">TRACE saved → trace.v1</text>

  <rect x="110" y="618" width="1380" height="58" rx="18" fill="#0C0B09" stroke="#3A2A10" stroke-width="1.5"/>
  <text x="142" y="655" class="mono text" font-size="21" font-weight="700">› /dream verify --min-confidence 0.8</text>
  <rect x="1138" y="630" width="322" height="34" rx="10" fill="#15110A" stroke="#2E230F"/>
  <text x="1160" y="653" class="mono dim" font-size="14">F2 model · F4 config · Ctrl+R trace</text>
</svg>
